<svg width="185" height="44" viewBox="0 0 185 44" xmlns="http://www.w3.org/2000/svg"><title>Mobile logo</title><g fill="none" fill-rule="evenodd"><path d="M21.638 41.588c-7.831 0-14.184-8.819-14.184-19.7 0-10.881 6.353-19.7 14.184-19.7 7.835 0 14.187 8.819 14.187 19.7 0 10.881-6.352 19.7-14.187 19.7m0-41.588C9.69 0 0 9.8 0 21.889c0 12.089 9.69 21.888 21.638 21.888 11.952 0 21.639-9.8 21.639-21.888C43.277 9.8 33.59 0 21.638 0" fill="#B39841"/><path d="M28.516 15.462l-5.761 16.576c-.108.298-.376.678-.772.778a.837.837 0 0 1-.323.02 1.125 1.125 0 0 1-.58-.294l-.004-.005c-3.106-2.9-4.813-6.425-4.932-10.191a13.36 13.36 0 0 1 .894-5.256c.315-.821.71-1.605 1.172-2.337l2.145 11.878-1.342 2.633a16.623 16.623 0 0 0 2.447 2.848c.143.127.27.174.382.146.164-.041.313-.24.376-.415l5.76-16.574a.284.284 0 0 1 .364-.175.29.29 0 0 1 .174.368zm-9.033-2.392c.133.101.269.2.406.294l1.89 10.47-.9 1.769-2.108-11.667c.227-.3.463-.59.712-.866zm2.46 1.421l1.202 6.658-.841 1.657-1.613-8.927a8.72 8.72 0 0 0 1.252.612zm1.15.312c.132.048.429.11.856.127l.615 3.412.012.001-.907 1.78-.974-5.398c.134.033.266.058.399.078zm1.691.097c1.079-.109 1.445-.756 2.032-.931a3.005 3.005 0 0 0-.159.283l-1.565 3.078-.438-2.416c.044-.003.085-.009.13-.014zm5.664.29l.108-.213c.592-1.19.448-4.062-1.827-4.947-2.467-.957-4.066.242-6.105-.414-1.587-.51-3.53-2.885-4.18-3.928-.473-.757-.834-.497-.998-.296-.272.338-1.606 1.88-1.778 3.573.31.51.71 1.055 1.17 1.6-2.494 3.672-5.22 13.023.163 22.99l-.002.005c.018.029.036.06.053.092.011.022.023.04.034.063.27.505.33.991.298 1.474-.03.49.149 1.014.534 1.343-.14.293-.277.604-.23.62.196.115.697.145.987.148 1.48.02 3.334-1.44 4.17-3.144a6.874 6.874 0 0 0 2.737.557l4.904-18.997.015-.403-.053-.123zm25.196-3.098c-.24-.048-.828-.156-1.032-.168l-.072.048c-.048.36-.072 1.716-.06 2.136l.216-.06c.24-.312.696-1.092.912-1.476l1.692.096v3.312c0 2.544 0 2.928-.036 3.288l-1.236.42-.084.324c.72 0 1.44-.012 2.16-.012.696 0 1.38.012 2.076.012l.108-.324-1.404-.42c-.012-.3-.072-.612-.072-3.672v-2.928l1.812-.096c.144.432.504 1.284.612 1.572l.204-.084c.096-.348.348-1.656.396-2.076l-.048-.06c-.264.012-.804.108-1.128.168h-5.016zm7.44-.132c-.24.144-.588.504-.792.828l-.024.12c.132.264.48.66.744.828l.12-.036c.204-.132.636-.552.768-.816l.024-.132c-.144-.288-.54-.744-.744-.816l-.096.024zm-1.332 3.216l.66.324v1.476c0 .96-.012 1.92-.024 2.34l-.648.36-.072.336c.48 0 .984-.012 1.452-.012.54 0 .996.012 1.512.012l.084-.336-.816-.36A68.26 68.26 0 0 1 63.876 17v-2.472c-.84.06-1.86.312-2.052.372l-.072.276zm5.532-.48l.048-1.752c-.156 0-.72.156-.948.312-.18.276-.468 1.116-.552 1.44h-.6l-.18.456.756.192v3.012c0 .732.072 1.008.264 1.26.288.348.744.54 1.344.54.72 0 1.308-.324 1.584-.744l.012-.42-.06-.012c-.192.144-.516.3-.96.3a.966.966 0 0 1-.576-.18c-.06-.072-.144-.216-.144-.504 0-1.38.012-2.532.012-3.252l1.572-.18.216-.468h-1.788zm7.692 1.704c0-.864-.528-1.872-1.8-1.872-.492 0-.984.168-1.596.66l-.024-.012c0-1.2.012-2.544.036-3.564-.768.06-1.716.216-2.148.384l-.084.252.696.348c.036 1.116.036 2.484.036 3.996 0 1.572 0 2.556-.024 2.688l-.648.408-.084.324c.492 0 .972-.024 1.464-.024.528 0 1.032.024 1.548.024l.084-.324-.852-.408c-.024-.168-.024-2.4-.024-3.624.228-.168.54-.3.876-.3.612 0 1.08.348 1.08 1.512 0 1.788-.048 2.568-.12 3.072.684.084 1.728.108 2.328.096l.084-.324-.576-.3c-.18-.096-.252-.156-.252-.36V16.4zm4.968.888c.672 0 1.14-.156 1.248-.216.084-.048.12-.204.12-.384 0-1.38-.984-2.16-2.22-2.16-1.452 0-2.724 1.212-2.724 2.88 0 1.716 1.092 2.748 2.712 2.748.468 0 1.032-.168 1.26-.252.204-.132.78-.696.852-1.092l-.072-.192c-.264.132-.768.48-1.14.768a1.035 1.035 0 0 1-.336.048c-1.008 0-1.752-.792-1.74-1.992 0-.06 0-.096.012-.156h2.028zm-2.028-.516c0-.648.36-1.764 1.104-1.764.552 0 .84.588.84 1.38 0 .156-.036.3-.06.384h-1.884zm9.876.036c-.804.216-2.1.648-2.46.888-.324.168-.504.468-.504.972 0 .648.528 1.488 1.56 1.488.408 0 .816-.204 1.416-.672h.024c.108.264.444.648 1.26.648.468 0 .804-.192.936-.3l.06-.18c-.372-.132-.768-.42-.888-.636.012-.768.024-1.812.024-2.664 0-.732-.42-1.824-1.872-1.824-.264 0-.528.084-.84.204-.552.204-1.272.612-1.668.948.168.516.828 1.08.96 1.116l.108-.072c.072-.276.168-.924.216-1.392.144-.06.396-.144.636-.144.504 0 1.056.252 1.044 1.284l-.012.336zm-1.488 1.608c0-.324.108-.504.384-.684.288-.168.768-.36 1.104-.48l-.024 1.584c0 .108-.024.204-.096.264a.738.738 0 0 1-.516.216c-.348 0-.852-.216-.852-.888v-.012zm4.944-1.824c0 1.416-.012 2.568-.036 2.736l-.648.36-.084.324c.48 0 .984-.012 1.476-.012.444 0 .9 0 1.32.012l.072-.324-.612-.36c-.024-.228-.024-2.496-.024-3.432.3-.264.672-.456 1.032-.456.564 0 .948.384.948 1.152 0 1.536-.036 2.364-.048 2.712l-.48.384-.072.324c.444 0 .876-.012 1.296-.012.528 0 1.056.012 1.536.012l.084-.324-.636-.3c-.144-.06-.216-.132-.216-.264v-2.7c0-.876-.396-1.896-1.692-1.896-.504 0-1.104.348-1.812.912l-.024-.012.084-.9c-.324 0-1.776.36-1.98.504l-.096.264.612.288v1.008zm13.44-4.716c-2.088 0-4.296 1.56-4.296 4.248 0 2.808 2.34 4.104 4.308 4.104 2.016 0 4.308-1.308 4.26-4.296-.036-2.856-2.424-4.056-4.26-4.056h-.012zm-.132.48c1.74 0 2.676 2.076 2.676 3.756 0 1.584-.54 3.648-2.376 3.648-1.764 0-2.736-1.944-2.736-3.84 0-1.932.828-3.564 2.424-3.564h.012zm6.684-.396c-.24.144-.588.504-.792.828l-.024.12c.132.264.48.66.744.828l.12-.036c.204-.132.636-.552.768-.816l.024-.132c-.144-.288-.54-.744-.744-.816l-.096.024zm-1.332 3.216l.66.324v1.476c0 .96-.012 1.92-.024 2.34l-.648.36-.072.336c.48 0 .984-.012 1.452-.012.54 0 .996.012 1.512.012l.084-.336-.816-.36a68.26 68.26 0 0 1-.024-2.316v-2.472c-.84.06-1.86.312-2.052.372l-.072.276zm3.636.084l.648.336c0 .516-.012 2.472-.06 3.708l-.66.372-.048.324c.468 0 .972-.024 1.452-.024.648 0 1.296.024 1.896.024l.072-.324-1.2-.372v-3.096c.168-.384.54-.708.828-.708.084 0 .132.012.18.048.228.456.36.66.492.852l.18-.072c.216-.372.516-1.212.54-1.56-.132-.144-.348-.24-.648-.24-.552 0-1.164.396-1.572 1.068h-.036c.012-.252-.048-.828-.12-1.068-.48.024-1.68.372-1.86.468l-.084.264zm8.412 2.028c.672 0 1.14-.156 1.248-.216.084-.048.12-.204.12-.384 0-1.38-.984-2.16-2.22-2.16-1.452 0-2.724 1.212-2.724 2.88 0 1.716 1.092 2.748 2.712 2.748.468 0 1.032-.168 1.26-.252.204-.132.78-.696.852-1.092l-.072-.192c-.264.132-.768.48-1.14.768a1.035 1.035 0 0 1-.336.048c-1.008 0-1.752-.792-1.74-1.992 0-.06 0-.096.012-.156h2.028zm-2.028-.516c0-.648.36-1.764 1.104-1.764.552 0 .84.588.84 1.38 0 .156-.036.3-.06.384h-1.884zm7.26.036c-.804.216-2.1.648-2.46.888-.324.168-.504.468-.504.972 0 .648.528 1.488 1.56 1.488.408 0 .816-.204 1.416-.672h.024c.108.264.444.648 1.26.648.468 0 .804-.192.936-.3l.06-.18c-.372-.132-.768-.42-.888-.636.012-.768.024-1.812.024-2.664 0-.732-.42-1.824-1.872-1.824-.264 0-.528.084-.84.204-.552.204-1.272.612-1.668.948.168.516.828 1.08.96 1.116l.108-.072c.072-.276.168-.924.216-1.392.144-.06.396-.144.636-.144.504 0 1.056.252 1.044 1.284l-.012.336zm-1.488 1.608c0-.324.108-.504.384-.684.288-.168.768-.36 1.104-.48l-.024 1.584c0 .108-.024.204-.096.264a.738.738 0 0 1-.516.216c-.348 0-.852-.216-.852-.888v-.012zm4.272-.972c0 1.956 1.548 2.712 2.964 2.712.432 0 .96-.132 1.14-.204.228-.12.696-.72.804-1.02l-.108-.24c-.24.12-.66.396-1.032.672a.7.7 0 0 1-.312.072c-1.212 0-1.908-.972-1.908-2.208 0-1.116.588-2.208 1.776-2.208.168 0 .276.024.348.06.144.6.348 1.164.468 1.38l.204-.06c.216-.372.456-1.14.504-1.404-.228-.192-.84-.468-1.644-.468-1.5 0-3.204.924-3.204 2.904v.012zm11.04-1.044c0-.864-.528-1.872-1.8-1.872-.492 0-.984.168-1.596.66l-.024-.012c0-1.2.012-2.544.036-3.564-.768.06-1.716.216-2.148.384l-.084.252.696.348c.036 1.116.036 2.484.036 3.996 0 1.572 0 2.556-.024 2.688l-.648.408-.084.324c.492 0 .972-.024 1.464-.024.528 0 1.032.024 1.548.024l.084-.324-.852-.408c-.024-.168-.024-2.4-.024-3.624.228-.168.54-.3.876-.3.612 0 1.08.348 1.08 1.512 0 1.788-.048 2.568-.12 3.072.684.084 1.728.108 2.328.096l.084-.324-.576-.3c-.18-.096-.252-.156-.252-.36V16.4zm3.324-1.704l.048-1.752c-.156 0-.72.156-.948.312-.18.276-.468 1.116-.552 1.44h-.6l-.18.456.756.192v3.012c0 .732.072 1.008.264 1.26.288.348.744.54 1.344.54.72 0 1.308-.324 1.584-.744l.012-.42-.06-.012c-.192.144-.516.3-.96.3a.966.966 0 0 1-.576-.18c-.06-.072-.144-.216-.144-.504 0-1.38.012-2.532.012-3.252l1.572-.18.216-.468h-1.788zm5.268 2.112c-.804.216-2.1.648-2.46.888-.324.168-.504.468-.504.972 0 .648.528 1.488 1.56 1.488.408 0 .816-.204 1.416-.672h.024c.108.264.444.648 1.26.648.468 0 .804-.192.936-.3l.06-.18c-.372-.132-.768-.42-.888-.636.012-.768.024-1.812.024-2.664 0-.732-.42-1.824-1.872-1.824-.264 0-.528.084-.84.204-.552.204-1.272.612-1.668.948.168.516.828 1.08.96 1.116l.108-.072c.072-.276.168-.924.216-1.392.144-.06.396-.144.636-.144.504 0 1.056.252 1.044 1.284l-.012.336zm-1.488 1.608c0-.324.108-.504.384-.684.288-.168.768-.36 1.104-.48l-.024 1.584c0 .108-.024.204-.096.264a.738.738 0 0 1-.516.216c-.348 0-.852-.216-.852-.888v-.012zm5.592-6.456c-.24.144-.588.504-.792.828l-.024.12c.132.264.48.66.744.828l.12-.036c.204-.132.636-.552.768-.816l.024-.132c-.144-.288-.54-.744-.744-.816l-.096.024zm-1.332 3.216l.66.324v1.476c0 .96-.012 1.92-.024 2.34l-.648.36-.072.336c.48 0 .984-.012 1.452-.012.54 0 .996.012 1.512.012l.084-.336-.816-.36A68.26 68.26 0 0 1 154.5 17v-2.472c-.84.06-1.86.312-2.052.372l-.072.276zm5.7-.648c-1.272 0-1.908.852-1.908 1.692 0 .744.444 1.2 1.152 1.536.42.204.768.384 1.08.552.324.168.432.36.432.624 0 .408-.396.768-.96.768a1.8 1.8 0 0 1-.66-.12c-.192-.396-.492-1.128-.696-1.464l-.18.084c-.084.204-.288 1.14-.3 1.464.336.228 1.08.492 1.788.492.828 0 2.316-.336 2.316-1.788 0-.504-.204-.948-.876-1.308-.444-.228-.9-.444-1.44-.72-.324-.168-.456-.36-.456-.588 0-.312.252-.684.792-.684.42 0 .636.156.708.216.108.312.288.696.444.936l.204-.072c.12-.276.264-1.14.3-1.608l-.12-.072c-.24.084-.492.204-.696.348a1.685 1.685 0 0 0-.912-.288h-.012zM54.516 27.416l.912.408v3.012c0 1.464-.06 3.168-.072 3.444l-.864.408-.096.324c.564 0 1.164-.012 1.74-.012.492 0 .936.012 1.404.012l.096-.324-.672-.444c-.036-1.188-.012-2.196-.012-3.108h2.136c.612 0 1.152-.024 1.452-.084 0 1.068.024 2.112-.012 3.216l-.54.408-.096.336c.48 0 .972-.012 1.464-.012.588 0 1.188.012 1.752.012l.096-.324-1.056-.432c-.048-.156-.084-1.992-.084-3.348v-3.072l.936-.408.084-.336c-.564 0-1.164.024-1.764.024-.42 0-.84-.024-1.272-.024l-.084.312.576.432v2.628h-3.588v-2.628l.552-.396.108-.348c-.456 0-.912.024-1.416.024-.516 0-1.056-.024-1.572-.024l-.108.324zm12.156 2.112c-1.428 0-2.868 1.08-2.868 2.868 0 1.752 1.356 2.76 2.856 2.76 1.656 0 2.856-1.14 2.856-2.868 0-1.62-1.164-2.76-2.832-2.76h-.012zm-.036.468c.912 0 1.26 1.428 1.26 2.424 0 .876-.204 2.268-1.14 2.268-.936 0-1.332-1.404-1.332-2.472 0-.984.336-2.22 1.2-2.22h.012zm4.26.444c0 .756-.024 1.944-.024 2.832 0 .672.156 1.14.504 1.452.288.276.756.432 1.2.432.732 0 1.272-.384 1.716-.864h.024c.192.684.78.84 1.284.84.384 0 .828-.156.924-.264l.06-.168c-.216-.072-.66-.276-.864-.636 0-3.12 0-3.912.036-4.464a12.52 12.52 0 0 0-2.232.204l-.12.276c.72.3.828.36.852.54v3.156a1.336 1.336 0 0 1-.984.468.977.977 0 0 1-.744-.312c-.12-.168-.192-.432-.192-.948 0-1.8.048-2.736.084-3.384-.732.012-1.632.096-2.088.216l-.108.276.672.348zm8.376-.912c-1.272 0-1.908.852-1.908 1.692 0 .744.444 1.2 1.152 1.536.42.204.768.384 1.08.552.324.168.432.36.432.624 0 .408-.396.768-.96.768a1.8 1.8 0 0 1-.66-.12c-.192-.396-.492-1.128-.696-1.464l-.18.084c-.084.204-.288 1.14-.3 1.464.336.228 1.08.492 1.788.492.828 0 2.316-.336 2.316-1.788 0-.504-.204-.948-.876-1.308-.444-.228-.9-.444-1.44-.72-.324-.168-.456-.36-.456-.588 0-.312.252-.684.792-.684.42 0 .636.156.708.216.108.312.288.696.444.936l.204-.072c.12-.276.264-1.14.3-1.608l-.12-.072c-.24.084-.492.204-.696.348a1.685 1.685 0 0 0-.912-.288h-.012zm6.468 2.76c.672 0 1.14-.156 1.248-.216.084-.048.12-.204.12-.384 0-1.38-.984-2.16-2.22-2.16-1.452 0-2.724 1.212-2.724 2.88 0 1.716 1.092 2.748 2.712 2.748.468 0 1.032-.168 1.26-.252.204-.132.78-.696.852-1.092l-.072-.192c-.264.132-.768.48-1.14.768a1.035 1.035 0 0 1-.336.048c-1.008 0-1.752-.792-1.74-1.992 0-.06 0-.096.012-.156h2.028zm-2.028-.516c0-.648.36-1.764 1.104-1.764.552 0 .84.588.84 1.38 0 .156-.036.3-.06.384h-1.884zm6.3-2.244c-1.272 0-1.908.852-1.908 1.692 0 .744.444 1.2 1.152 1.536.42.204.768.384 1.08.552.324.168.432.36.432.624 0 .408-.396.768-.96.768a1.8 1.8 0 0 1-.66-.12c-.192-.396-.492-1.128-.696-1.464l-.18.084c-.084.204-.288 1.14-.3 1.464.336.228 1.08.492 1.788.492.828 0 2.316-.336 2.316-1.788 0-.504-.204-.948-.876-1.308-.444-.228-.9-.444-1.44-.72-.324-.168-.456-.36-.456-.588 0-.312.252-.684.792-.684.42 0 .636.156.708.216.108.312.288.696.444.936l.204-.072c.12-.276.264-1.14.3-1.608l-.12-.072c-.24.084-.492.204-.696.348a1.685 1.685 0 0 0-.912-.288h-.012zm8.424 0c-1.428 0-2.868 1.08-2.868 2.868 0 1.752 1.356 2.76 2.856 2.76 1.656 0 2.856-1.14 2.856-2.868 0-1.62-1.164-2.76-2.832-2.76h-.012zm-.036.468c.912 0 1.26 1.428 1.26 2.424 0 .876-.204 2.268-1.14 2.268-.936 0-1.332-1.404-1.332-2.472 0-.984.336-2.22 1.2-2.22h.012zm3.504 5.016c.564 0 1.08-.012 1.596-.012.6 0 1.2.012 1.752.012l.072-.312-1.056-.396c-.024-.168-.036-.636-.036-2.472 0-.768.012-1.308.024-1.56l1.296-.156.18-.42h-1.476c0-.204-.024-.54-.012-.876.036-1.2.42-1.728.828-1.728.072 0 .12 0 .18.024.192.492.408.876.54 1.08l.204-.084c.204-.336.384-.888.468-1.212-.216-.18-.54-.3-.996-.3-.6 0-1.236.204-1.776.732-.72.696-.924 1.632-.924 2.364h-.588l-.18.432.768.156v1.644c0 1.416-.024 2.208-.036 2.388l-.792.408-.036.288zm8.82-5.316l.048-1.752c-.156 0-.72.156-.948.312-.18.276-.468 1.116-.552 1.44h-.6l-.18.456.756.192v3.012c0 .732.072 1.008.264 1.26.288.348.744.54 1.344.54.72 0 1.308-.324 1.584-.744l.012-.42-.06-.012c-.192.144-.516.3-.96.3a.966.966 0 0 1-.576-.18c-.06-.072-.144-.216-.144-.504 0-1.38.012-2.532.012-3.252l1.572-.18.216-.468h-1.788zm7.692 1.704c0-.864-.528-1.872-1.8-1.872-.492 0-.984.168-1.596.66l-.024-.012c0-1.2.012-2.544.036-3.564-.768.06-1.716.216-2.148.384l-.084.252.696.348c.036 1.116.036 2.484.036 3.996 0 1.572 0 2.556-.024 2.688l-.648.408-.084.324c.492 0 .972-.024 1.464-.024.528 0 1.032.024 1.548.024l.084-.324-.852-.408c-.024-.168-.024-2.4-.024-3.624.228-.168.54-.3.876-.3.612 0 1.08.348 1.08 1.512 0 1.788-.048 2.568-.12 3.072.684.084 1.728.108 2.328.096l.084-.324-.576-.3c-.18-.096-.252-.156-.252-.36V31.4zm4.968.888c.672 0 1.14-.156 1.248-.216.084-.048.12-.204.12-.384 0-1.38-.984-2.16-2.22-2.16-1.452 0-2.724 1.212-2.724 2.88 0 1.716 1.092 2.748 2.712 2.748.468 0 1.032-.168 1.26-.252.204-.132.78-.696.852-1.092l-.072-.192c-.264.132-.768.48-1.14.768a1.035 1.035 0 0 1-.336.048c-1.008 0-1.752-.792-1.74-1.992 0-.06 0-.096.012-.156h2.028zm-2.028-.516c0-.648.36-1.764 1.104-1.764.552 0 .84.588.84 1.38 0 .156-.036.3-.06.384h-1.884zm11.292-4.896c-2.088 0-4.296 1.56-4.296 4.248 0 2.808 2.34 4.104 4.308 4.104 2.016 0 4.308-1.308 4.26-4.296-.036-2.856-2.424-4.056-4.26-4.056h-.012zm-.132.48c1.74 0 2.676 2.076 2.676 3.756 0 1.584-.54 3.648-2.376 3.648-1.764 0-2.736-1.944-2.736-3.84 0-1.932.828-3.564 2.424-3.564h.012zm6.684-.396c-.24.144-.588.504-.792.828l-.024.12c.132.264.48.66.744.828l.12-.036c.204-.132.636-.552.768-.816l.024-.132c-.144-.288-.54-.744-.744-.816l-.096.024zm-1.332 3.216l.66.324v1.476c0 .96-.012 1.92-.024 2.34l-.648.36-.072.336c.48 0 .984-.012 1.452-.012.54 0 .996.012 1.512.012l.084-.336-.816-.36a68.26 68.26 0 0 1-.024-2.316v-2.472c-.84.06-1.86.312-2.052.372l-.072.276zm3.636.084l.648.336c0 .516-.012 2.472-.06 3.708l-.66.372-.048.324c.468 0 .972-.024 1.452-.024.648 0 1.296.024 1.896.024l.072-.324-1.2-.372v-3.096c.168-.384.54-.708.828-.708.084 0 .132.012.18.048.228.456.36.66.492.852l.18-.072c.216-.372.516-1.212.54-1.56-.132-.144-.348-.24-.648-.24-.552 0-1.164.396-1.572 1.068h-.036c.012-.252-.048-.828-.12-1.068-.48.024-1.68.372-1.86.468l-.084.264zm8.412 2.028c.672 0 1.14-.156 1.248-.216.084-.048.12-.204.12-.384 0-1.38-.984-2.16-2.22-2.16-1.452 0-2.724 1.212-2.724 2.88 0 1.716 1.092 2.748 2.712 2.748.468 0 1.032-.168 1.26-.252.204-.132.78-.696.852-1.092l-.072-.192c-.264.132-.768.48-1.14.768a1.035 1.035 0 0 1-.336.048c-1.008 0-1.752-.792-1.74-1.992 0-.06 0-.096.012-.156h2.028zm-2.028-.516c0-.648.36-1.764 1.104-1.764.552 0 .84.588.84 1.38 0 .156-.036.3-.06.384h-1.884zm7.26.036c-.804.216-2.1.648-2.46.888-.324.168-.504.468-.504.972 0 .648.528 1.488 1.56 1.488.408 0 .816-.204 1.416-.672h.024c.108.264.444.648 1.26.648.468 0 .804-.192.936-.3l.06-.18c-.372-.132-.768-.42-.888-.636.012-.768.024-1.812.024-2.664 0-.732-.42-1.824-1.872-1.824-.264 0-.528.084-.84.204-.552.204-1.272.612-1.668.948.168.516.828 1.08.96 1.116l.108-.072c.072-.276.168-.924.216-1.392.144-.06.396-.144.636-.144.504 0 1.056.252 1.044 1.284l-.012.336zm-1.488 1.608c0-.324.108-.504.384-.684.288-.168.768-.36 1.104-.48l-.024 1.584c0 .108-.024.204-.096.264a.738.738 0 0 1-.516.216c-.348 0-.852-.216-.852-.888v-.012zm4.272-.972c0 1.956 1.548 2.712 2.964 2.712.432 0 .96-.132 1.14-.204.228-.12.696-.72.804-1.02l-.108-.24c-.24.12-.66.396-1.032.672a.7.7 0 0 1-.312.072c-1.212 0-1.908-.972-1.908-2.208 0-1.116.588-2.208 1.776-2.208.168 0 .276.024.348.06.144.6.348 1.164.468 1.38l.204-.06c.216-.372.456-1.14.504-1.404-.228-.192-.84-.468-1.644-.468-1.5 0-3.204.924-3.204 2.904v.012zm11.04-1.044c0-.864-.528-1.872-1.8-1.872-.492 0-.984.168-1.596.66l-.024-.012c0-1.2.012-2.544.036-3.564-.768.06-1.716.216-2.148.384l-.084.252.696.348c.036 1.116.036 2.484.036 3.996 0 1.572 0 2.556-.024 2.688l-.648.408-.084.324c.492 0 .972-.024 1.464-.024.528 0 1.032.024 1.548.024l.084-.324-.852-.408c-.024-.168-.024-2.4-.024-3.624.228-.168.54-.3.876-.3.612 0 1.08.348 1.08 1.512 0 1.788-.048 2.568-.12 3.072.684.084 1.728.108 2.328.096l.084-.324-.576-.3c-.18-.096-.252-.156-.252-.36V31.4zm3.324-1.704l.048-1.752c-.156 0-.72.156-.948.312-.18.276-.468 1.116-.552 1.44h-.6l-.18.456.756.192v3.012c0 .732.072 1.008.264 1.26.288.348.744.54 1.344.54.72 0 1.308-.324 1.584-.744l.012-.42-.06-.012c-.192.144-.516.3-.96.3a.966.966 0 0 1-.576-.18c-.06-.072-.144-.216-.144-.504 0-1.38.012-2.532.012-3.252l1.572-.18.216-.468h-1.788zm5.268 2.112c-.804.216-2.1.648-2.46.888-.324.168-.504.468-.504.972 0 .648.528 1.488 1.56 1.488.408 0 .816-.204 1.416-.672h.024c.108.264.444.648 1.26.648.468 0 .804-.192.936-.3l.06-.18c-.372-.132-.768-.42-.888-.636.012-.768.024-1.812.024-2.664 0-.732-.42-1.824-1.872-1.824-.264 0-.528.084-.84.204-.552.204-1.272.612-1.668.948.168.516.828 1.08.96 1.116l.108-.072c.072-.276.168-.924.216-1.392.144-.06.396-.144.636-.144.504 0 1.056.252 1.044 1.284l-.012.336zm-1.488 1.608c0-.324.108-.504.384-.684.288-.168.768-.36 1.104-.48l-.024 1.584c0 .108-.024.204-.096.264a.738.738 0 0 1-.516.216c-.348 0-.852-.216-.852-.888v-.012zm6.468-3.888c-1.272 0-1.908.852-1.908 1.692 0 .744.444 1.2 1.152 1.536.42.204.768.384 1.08.552.324.168.432.36.432.624 0 .408-.396.768-.96.768a1.8 1.8 0 0 1-.66-.12c-.192-.396-.492-1.128-.696-1.464l-.18.084c-.084.204-.288 1.14-.3 1.464.336.228 1.08.492 1.788.492.828 0 2.316-.336 2.316-1.788 0-.504-.204-.948-.876-1.308-.444-.228-.9-.444-1.44-.72-.324-.168-.456-.36-.456-.588 0-.312.252-.684.792-.684.42 0 .636.156.708.216.108.312.288.696.444.936l.204-.072c.12-.276.264-1.14.3-1.608l-.12-.072c-.24.084-.492.204-.696.348a1.685 1.685 0 0 0-.912-.288h-.012z" fill="#FFF"/></g></svg>